<svg xmlns="http://www.w3.org/2000/svg" width="1600" height="1067" viewBox="0 0 1600 1067" role="img" aria-label="Surf breaking on volcanic black sand at dusk on the Cameroon coast">
<title>Surf breaking on volcanic black sand at dusk on the Cameroon coast</title>
<defs>
<linearGradient id="sky_coast_black_sand_dusk" x1="0" y1="0" x2="0" y2="1"><stop offset="0" stop-color="#B4ADA1"/><stop offset="1" stop-color="#F0E8DB"/></linearGradient>
<pattern id="h58904" width="8" height="8" patternUnits="userSpaceOnUse" patternTransform="rotate(-6)"><line x1="0" y1="0" x2="0" y2="8" stroke="#BE5527" stroke-width="2.0"/></pattern>
<radialGradient id="vig_coast_black_sand_dusk" cx="0.5" cy="0.48" r="0.78"><stop offset="0.55" stop-color="#1C2A25" stop-opacity="0"/><stop offset="1" stop-color="#1C2A25" stop-opacity="0.28"/></radialGradient>
<pattern id="grain_coast_black_sand_dusk" width="90" height="90" patternUnits="userSpaceOnUse"><circle cx="29.1" cy="13.6" r="1.4" fill="#1C2A25"/><circle cx="6.5" cy="48.2" r="1.1" fill="#1C2A25"/><circle cx="5.2" cy="45.7" r="0.7" fill="#1C2A25"/><circle cx="39.0" cy="6.3" r="0.8" fill="#1C2A25"/><circle cx="38.2" cy="74.4" r="0.8" fill="#1C2A25"/><circle cx="20.1" cy="56.5" r="1.7" fill="#1C2A25"/><circle cx="51.9" cy="35.7" r="1.8" fill="#1C2A25"/><circle cx="4.2" cy="77.3" r="1.0" fill="#1C2A25"/><circle cx="13.0" cy="10.6" r="1.0" fill="#1C2A25"/><circle cx="73.5" cy="16.3" r="1.3" fill="#1C2A25"/><circle cx="57.5" cy="33.5" r="1.3" fill="#1C2A25"/><circle cx="5.7" cy="5.4" r="0.9" fill="#1C2A25"/><circle cx="61.2" cy="38.5" r="1.0" fill="#1C2A25"/><circle cx="52.7" cy="40.8" r="1.0" fill="#1C2A25"/><circle cx="71.5" cy="62.9" r="1.0" fill="#1C2A25"/><circle cx="51.7" cy="47.3" r="1.7" fill="#1C2A25"/><circle cx="65.7" cy="25.9" r="1.8" fill="#1C2A25"/><circle cx="10.6" cy="37.6" r="1.5" fill="#1C2A25"/><circle cx="13.7" cy="44.0" r="0.7" fill="#1C2A25"/><circle cx="60.1" cy="68.8" r="1.3" fill="#1C2A25"/><circle cx="78.8" cy="28.2" r="1.5" fill="#1C2A25"/><circle cx="53.5" cy="52.2" r="1.2" fill="#1C2A25"/><circle cx="75.6" cy="85.0" r="1.2" fill="#1C2A25"/><circle cx="59.8" cy="5.5" r="1.5" fill="#1C2A25"/><circle cx="58.2" cy="89.4" r="1.6" fill="#1C2A25"/><circle cx="25.6" cy="34.7" r="1.4" fill="#1C2A25"/><circle cx="2.0" cy="41.6" r="0.9" fill="#1C2A25"/><circle cx="10.5" cy="5.3" r="1.5" fill="#1C2A25"/><circle cx="11.6" cy="22.3" r="1.1" fill="#1C2A25"/><circle cx="78.4" cy="7.3" r="1.2" fill="#1C2A25"/><circle cx="49.4" cy="79.5" r="1.6" fill="#1C2A25"/><circle cx="77.8" cy="25.1" r="1.2" fill="#1C2A25"/><circle cx="32.3" cy="79.6" r="1.8" fill="#1C2A25"/><circle cx="13.6" cy="15.9" r="1.0" fill="#1C2A25"/><circle cx="21.0" cy="43.6" r="1.3" fill="#1C2A25"/><circle cx="23.6" cy="0.4" r="1.2" fill="#1C2A25"/><circle cx="33.2" cy="51.0" r="1.7" fill="#1C2A25"/><circle cx="62.1" cy="46.4" r="1.4" fill="#1C2A25"/><circle cx="60.9" cy="4.9" r="1.7" fill="#1C2A25"/><circle cx="70.2" cy="78.7" r="1.6" fill="#1C2A25"/><circle cx="35.3" cy="35.9" r="0.8" fill="#1C2A25"/><circle cx="57.1" cy="5.6" r="0.8" fill="#1C2A25"/><circle cx="18.8" cy="14.6" r="1.1" fill="#1C2A25"/><circle cx="4.7" cy="0.0" r="0.9" fill="#1C2A25"/><circle cx="9.1" cy="32.7" r="0.7" fill="#1C2A25"/><circle cx="78.7" cy="55.3" r="0.9" fill="#1C2A25"/><circle cx="22.7" cy="31.3" r="1.1" fill="#1C2A25"/><circle cx="11.1" cy="76.4" r="1.8" fill="#1C2A25"/><circle cx="41.9" cy="43.5" r="0.8" fill="#1C2A25"/><circle cx="9.2" cy="30.8" r="1.0" fill="#1C2A25"/><circle cx="74.6" cy="14.5" r="0.7" fill="#1C2A25"/><circle cx="85.6" cy="47.5" r="0.9" fill="#1C2A25"/><circle cx="48.9" cy="2.4" r="1.3" fill="#1C2A25"/><circle cx="88.1" cy="77.7" r="1.5" fill="#1C2A25"/><circle cx="23.5" cy="33.0" r="0.9" fill="#1C2A25"/><circle cx="69.5" cy="47.9" r="1.6" fill="#1C2A25"/><circle cx="29.7" cy="20.1" r="1.6" fill="#1C2A25"/><circle cx="88.6" cy="76.7" r="1.6" fill="#1C2A25"/><circle cx="73.6" cy="66.6" r="0.9" fill="#1C2A25"/><circle cx="46.6" cy="32.0" r="0.7" fill="#1C2A25"/><circle cx="2.5" cy="25.1" r="1.0" fill="#1C2A25"/><circle cx="62.3" cy="86.1" r="1.2" fill="#1C2A25"/><circle cx="84.3" cy="88.9" r="1.8" fill="#1C2A25"/><circle cx="32.8" cy="19.8" r="0.9" fill="#1C2A25"/><circle cx="17.7" cy="18.4" r="1.4" fill="#1C2A25"/><circle cx="81.0" cy="75.6" r="1.2" fill="#1C2A25"/><circle cx="58.8" cy="72.0" r="0.8" fill="#1C2A25"/><circle cx="59.5" cy="81.9" r="1.6" fill="#1C2A25"/><circle cx="67.5" cy="43.0" r="0.9" fill="#1C2A25"/><circle cx="71.0" cy="29.9" r="1.6" fill="#1C2A25"/><circle cx="87.4" cy="35.6" r="1.1" fill="#1C2A25"/><circle cx="85.2" cy="65.2" r="0.9" fill="#1C2A25"/><circle cx="11.4" cy="13.6" r="1.7" fill="#1C2A25"/><circle cx="72.6" cy="13.2" r="1.6" fill="#1C2A25"/><circle cx="88.2" cy="59.2" r="1.1" fill="#1C2A25"/><circle cx="49.4" cy="11.8" r="0.7" fill="#1C2A25"/><circle cx="87.4" cy="58.5" r="1.3" fill="#1C2A25"/><circle cx="84.0" cy="39.0" r="1.7" fill="#1C2A25"/><circle cx="74.4" cy="19.0" r="1.0" fill="#1C2A25"/><circle cx="26.4" cy="21.6" r="1.3" fill="#1C2A25"/><circle cx="23.3" cy="37.7" r="0.8" fill="#1C2A25"/><circle cx="81.9" cy="31.8" r="1.2" fill="#1C2A25"/><circle cx="52.5" cy="81.4" r="1.2" fill="#1C2A25"/><circle cx="82.6" cy="45.1" r="1.3" fill="#1C2A25"/><circle cx="47.1" cy="1.7" r="1.2" fill="#1C2A25"/><circle cx="16.5" cy="0.4" r="1.6" fill="#1C2A25"/><circle cx="15.5" cy="42.6" r="1.5" fill="#1C2A25"/><circle cx="50.1" cy="29.3" r="1.3" fill="#1C2A25"/><circle cx="50.0" cy="70.6" r="0.8" fill="#1C2A25"/><circle cx="50.4" cy="22.4" r="1.0" fill="#1C2A25"/><circle cx="69.5" cy="45.7" r="1.3" fill="#1C2A25"/><circle cx="68.4" cy="82.1" r="1.2" fill="#1C2A25"/><circle cx="55.1" cy="45.5" r="1.3" fill="#1C2A25"/><circle cx="62.3" cy="40.7" r="1.3" fill="#1C2A25"/><circle cx="43.0" cy="84.7" r="1.5" fill="#1C2A25"/><circle cx="78.9" cy="84.8" r="1.0" fill="#1C2A25"/><circle cx="50.4" cy="84.9" r="1.6" fill="#1C2A25"/><circle cx="12.3" cy="10.9" r="1.2" fill="#1C2A25"/><circle cx="6.5" cy="21.7" r="0.8" fill="#1C2A25"/><circle cx="60.3" cy="70.6" r="1.7" fill="#1C2A25"/><circle cx="13.9" cy="64.5" r="1.4" fill="#1C2A25"/><circle cx="12.9" cy="79.5" r="1.8" fill="#1C2A25"/><circle cx="19.8" cy="85.7" r="1.1" fill="#1C2A25"/><circle cx="43.9" cy="89.1" r="1.6" fill="#1C2A25"/><circle cx="14.5" cy="38.8" r="1.3" fill="#1C2A25"/><circle cx="30.5" cy="17.6" r="1.1" fill="#1C2A25"/><circle cx="65.0" cy="1.8" r="1.3" fill="#1C2A25"/><circle cx="39.6" cy="1.6" r="1.1" fill="#1C2A25"/><circle cx="56.2" cy="46.1" r="0.8" fill="#1C2A25"/><circle cx="88.7" cy="71.0" r="1.8" fill="#1C2A25"/><circle cx="9.4" cy="23.9" r="0.7" fill="#1C2A25"/><circle cx="70.1" cy="24.3" r="0.8" fill="#1C2A25"/><circle cx="38.0" cy="82.0" r="1.6" fill="#1C2A25"/><circle cx="23.3" cy="13.4" r="1.7" fill="#1C2A25"/><circle cx="51.4" cy="63.0" r="0.8" fill="#1C2A25"/><circle cx="5.2" cy="61.9" r="1.2" fill="#1C2A25"/><circle cx="6.5" cy="84.5" r="1.4" fill="#1C2A25"/><circle cx="72.1" cy="7.5" r="1.6" fill="#1C2A25"/><circle cx="6.0" cy="77.6" r="1.2" fill="#1C2A25"/><circle cx="30.5" cy="49.8" r="1.7" fill="#1C2A25"/><circle cx="24.1" cy="11.6" r="1.3" fill="#1C2A25"/><circle cx="21.5" cy="9.9" r="0.9" fill="#1C2A25"/><circle cx="4.5" cy="18.2" r="1.0" fill="#1C2A25"/><circle cx="27.5" cy="68.4" r="1.0" fill="#1C2A25"/><circle cx="45.0" cy="16.0" r="1.1" fill="#1C2A25"/><circle cx="1.6" cy="22.5" r="0.7" fill="#1C2A25"/><circle cx="66.0" cy="49.6" r="0.9" fill="#1C2A25"/><circle cx="42.7" cy="84.1" r="0.8" fill="#1C2A25"/><circle cx="73.7" cy="38.9" r="1.2" fill="#1C2A25"/><circle cx="75.1" cy="35.4" r="1.3" fill="#1C2A25"/><circle cx="61.9" cy="88.4" r="1.1" fill="#1C2A25"/><circle cx="74.9" cy="63.6" r="1.4" fill="#1C2A25"/><circle cx="36.4" cy="31.3" r="0.8" fill="#1C2A25"/><circle cx="11.7" cy="6.4" r="1.5" fill="#1C2A25"/><circle cx="23.0" cy="14.7" r="0.8" fill="#1C2A25"/><circle cx="75.7" cy="78.3" r="1.4" fill="#1C2A25"/><circle cx="25.4" cy="21.8" r="1.0" fill="#1C2A25"/><circle cx="41.4" cy="14.2" r="1.2" fill="#1C2A25"/><circle cx="23.7" cy="86.6" r="1.8" fill="#1C2A25"/><circle cx="49.2" cy="22.0" r="1.8" fill="#1C2A25"/><circle cx="27.9" cy="32.1" r="0.7" fill="#1C2A25"/><circle cx="34.3" cy="42.7" r="1.3" fill="#1C2A25"/><circle cx="18.1" cy="45.4" r="0.7" fill="#1C2A25"/><circle cx="23.8" cy="8.1" r="1.1" fill="#1C2A25"/><circle cx="3.8" cy="2.0" r="1.0" fill="#1C2A25"/><circle cx="21.0" cy="52.7" r="1.3" fill="#1C2A25"/><circle cx="67.5" cy="59.2" r="1.5" fill="#1C2A25"/><circle cx="79.1" cy="35.1" r="1.1" fill="#1C2A25"/><circle cx="88.6" cy="13.5" r="1.5" fill="#1C2A25"/><circle cx="57.9" cy="3.9" r="1.6" fill="#1C2A25"/></pattern>
</defs>
<rect width="1600" height="1067" fill="url(#sky_coast_black_sand_dusk)"/>
<circle cx="780" cy="430" r="326" fill="#BE5527" opacity="0.055"/>
<circle cx="780" cy="430" r="263" fill="#BE5527" opacity="0.075"/>
<circle cx="780" cy="430" r="200" fill="#BE5527" opacity="0.095"/>
<circle cx="780" cy="430" r="137" fill="#BE5527" opacity="0.115"/>
<circle cx="780" cy="430" r="74" fill="#F5EFE3"/>
<rect x="0" y="455.0" width="1600" height="15.0" fill="#D6C7B9" opacity="0.600"/>
<rect x="0" y="470.0" width="1600" height="250.0" fill="#9D8F81" opacity="1.000"/>
<rect x="401" y="484" width="275" height="6" fill="#EFE7DB" opacity="0.24" rx="3"/>
<rect x="797" y="512" width="163" height="4" fill="#EFE7DB" opacity="0.15" rx="3"/>
<rect x="468" y="539" width="170" height="5" fill="#EFE7DB" opacity="0.22" rx="3"/>
<rect x="513" y="567" width="160" height="4" fill="#EFE7DB" opacity="0.30" rx="3"/>
<rect x="507" y="595" width="295" height="5" fill="#EFE7DB" opacity="0.19" rx="3"/>
<rect x="432" y="623" width="258" height="5" fill="#EFE7DB" opacity="0.21" rx="3"/>
<rect x="856" y="651" width="286" height="3" fill="#EFE7DB" opacity="0.13" rx="3"/>
<rect x="451" y="678" width="180" height="4" fill="#EFE7DB" opacity="0.37" rx="3"/>
<rect x="222" y="706" width="305" height="3" fill="#EFE7DB" opacity="0.28" rx="3"/>
<polygon points="736.0,470.0 824.0,470.0 960.0,760.0 600.0,760.0" fill="#F5EFE3" opacity="0.30"/>
<path d="M 119,786 q 720,-20 1439,0" fill="none" stroke="#EFEADF" stroke-width="6.6" opacity="0.52" stroke-linecap="round"/>
<path d="M 279,773 q 506,-15 1012,0" fill="none" stroke="#EFEADF" stroke-width="6.9" opacity="0.51" stroke-linecap="round"/>
<path d="M 144,754 q 569,-18 1137,0" fill="none" stroke="#EFEADF" stroke-width="6.7" opacity="0.29" stroke-linecap="round"/>
<path d="M 270,738 q 565,-14 1131,0" fill="none" stroke="#EFEADF" stroke-width="3.3" opacity="0.49" stroke-linecap="round"/>
<path d="M 220,724 q 711,-18 1421,0" fill="none" stroke="#EFEADF" stroke-width="6.6" opacity="0.54" stroke-linecap="round"/>
<path d="M 334,709 q 518,-17 1036,0" fill="none" stroke="#EFEADF" stroke-width="3.0" opacity="0.55" stroke-linecap="round"/>
<path d="M 198,689 q 609,-12 1217,0" fill="none" stroke="#EFEADF" stroke-width="5.2" opacity="0.28" stroke-linecap="round"/>
<path d="M -143,673 q 852,-14 1704,0" fill="none" stroke="#EFEADF" stroke-width="5.3" opacity="0.57" stroke-linecap="round"/>
<path d="M 246,661 q 588,-12 1176,0" fill="none" stroke="#EFEADF" stroke-width="3.3" opacity="0.52" stroke-linecap="round"/>
<rect x="0" y="800.0" width="1600" height="267.0" fill="#2D312C" opacity="1.000"/>
<rect x="0" y="800" width="1600" height="267" fill="url(#h58904)" opacity="0.10"/>
<path d="M 0,820 q 400,40 800,10 q 400,-30 800,20 L 1600,900 L 0,900 Z" fill="#E8E0D4" opacity="0.5"/>
<path d="M 210.0,1010.0 q 56.2,-190.0 92.7,-380.0" stroke="#181F1C" stroke-width="17.1" fill="none" stroke-linecap="round"/>
<path d="M 302.7,630.0 Q 220.9,557.3 139.2,606.3" stroke="#181F1C" stroke-width="14.4" fill="none" stroke-linecap="round"/>
<path d="M 302.7,630.0 Q 251.3,524.3 199.8,540.2" stroke="#181F1C" stroke-width="14.4" fill="none" stroke-linecap="round"/>
<path d="M 302.7,630.0 Q 302.7,512.2 302.7,516.0" stroke="#181F1C" stroke-width="14.4" fill="none" stroke-linecap="round"/>
<path d="M 302.7,630.0 Q 354.2,524.3 405.7,540.2" stroke="#181F1C" stroke-width="14.4" fill="none" stroke-linecap="round"/>
<path d="M 302.7,630.0 Q 384.5,557.3 466.3,606.3" stroke="#181F1C" stroke-width="14.4" fill="none" stroke-linecap="round"/>
<path d="M 302.7,630.0 Q 381.3,588.7 459.8,669.0" stroke="#181F1C" stroke-width="14.4" fill="none" stroke-linecap="round"/>
<path d="M 302.7,630.0 Q 224.2,549.7 145.6,591.0" stroke="#181F1C" stroke-width="14.4" fill="none" stroke-linecap="round"/>
<path d="M 1430.0,1050.0 q 25.2,-210.0 37.8,-420.0" stroke="#181F1C" stroke-width="18.9" fill="none" stroke-linecap="round"/>
<path d="M 1467.8,630.0 Q 1377.4,549.7 1287.0,603.8" stroke="#181F1C" stroke-width="16.0" fill="none" stroke-linecap="round"/>
<path d="M 1467.8,630.0 Q 1410.9,513.2 1354.0,530.7" stroke="#181F1C" stroke-width="16.0" fill="none" stroke-linecap="round"/>
<path d="M 1467.8,630.0 Q 1467.8,499.8 1467.8,504.0" stroke="#181F1C" stroke-width="16.0" fill="none" stroke-linecap="round"/>
<path d="M 1467.8,630.0 Q 1524.7,513.2 1581.6,530.7" stroke="#181F1C" stroke-width="16.0" fill="none" stroke-linecap="round"/>
<path d="M 1467.8,630.0 Q 1558.2,549.7 1648.6,603.8" stroke="#181F1C" stroke-width="16.0" fill="none" stroke-linecap="round"/>
<path d="M 1467.8,630.0 Q 1554.6,584.3 1641.5,673.1" stroke="#181F1C" stroke-width="16.0" fill="none" stroke-linecap="round"/>
<path d="M 1467.8,630.0 Q 1381.0,541.3 1294.1,586.9" stroke="#181F1C" stroke-width="16.0" fill="none" stroke-linecap="round"/>
<path d="M 920.7,386.9 q 7.6,-8.4 15.2,0 q 7.6,8.4 15.2,0" fill="none" stroke="#8C7B6B" stroke-width="1.6" opacity="0.31" stroke-linecap="round"/>
<path d="M 1189.1,272.4 q 8.4,-9.2 16.8,0 q 8.4,9.2 16.8,0" fill="none" stroke="#8C7B6B" stroke-width="1.7" opacity="0.60" stroke-linecap="round"/>
<path d="M 1063.9,337.9 q 6.5,-7.1 12.9,0 q 6.5,7.1 12.9,0" fill="none" stroke="#8C7B6B" stroke-width="1.6" opacity="0.40" stroke-linecap="round"/>
<path d="M 1132.5,300.8 q 6.3,-7.0 12.7,0 q 6.3,7.0 12.7,0" fill="none" stroke="#8C7B6B" stroke-width="1.6" opacity="0.63" stroke-linecap="round"/>
<path d="M 1288.5,236.0 q 5.8,-6.3 11.5,0 q 5.8,6.3 11.5,0" fill="none" stroke="#8C7B6B" stroke-width="1.6" opacity="0.64" stroke-linecap="round"/>
<rect width="1600" height="1067" fill="url(#vig_coast_black_sand_dusk)"/>
<rect width="1600" height="1067" fill="url(#grain_coast_black_sand_dusk)" opacity="0.28"/>
<rect width="1600" height="1067" fill="none" stroke="#1F211C" stroke-width="0" />
</svg>
