<svg xmlns="http://www.w3.org/2000/svg" width="1600" height="1067" viewBox="0 0 1600 1067" role="img" aria-label="Green highland country under clearing October skies in the Bamenda highlands">
<title>Green highland country under clearing October skies in the Bamenda highlands</title>
<defs>
<linearGradient id="sky_highlands_october" x1="0" y1="0" x2="0" y2="1"><stop offset="0" stop-color="#D5D2C8"/><stop offset="1" stop-color="#EAE6DB"/></linearGradient>
<pattern id="h58714" width="11" height="11" patternUnits="userSpaceOnUse" patternTransform="rotate(-16)"><line x1="0" y1="0" x2="0" y2="11" stroke="#F7F2E7" stroke-width="2.0"/></pattern>
<radialGradient id="vig_highlands_october" cx="0.5" cy="0.48" r="0.78"><stop offset="0.55" stop-color="#1C2A25" stop-opacity="0"/><stop offset="1" stop-color="#1C2A25" stop-opacity="0.16"/></radialGradient>
<pattern id="grain_highlands_october" width="90" height="90" patternUnits="userSpaceOnUse"><circle cx="29.1" cy="13.6" r="1.4" fill="#1C2A25"/><circle cx="6.5" cy="48.2" r="1.1" fill="#1C2A25"/><circle cx="5.2" cy="45.7" r="0.7" fill="#1C2A25"/><circle cx="39.0" cy="6.3" r="0.8" fill="#1C2A25"/><circle cx="38.2" cy="74.4" r="0.8" fill="#1C2A25"/><circle cx="20.1" cy="56.5" r="1.7" fill="#1C2A25"/><circle cx="51.9" cy="35.7" r="1.8" fill="#1C2A25"/><circle cx="4.2" cy="77.3" r="1.0" fill="#1C2A25"/><circle cx="13.0" cy="10.6" r="1.0" fill="#1C2A25"/><circle cx="73.5" cy="16.3" r="1.3" fill="#1C2A25"/><circle cx="57.5" cy="33.5" r="1.3" fill="#1C2A25"/><circle cx="5.7" cy="5.4" r="0.9" fill="#1C2A25"/><circle cx="61.2" cy="38.5" r="1.0" fill="#1C2A25"/><circle cx="52.7" cy="40.8" r="1.0" fill="#1C2A25"/><circle cx="71.5" cy="62.9" r="1.0" fill="#1C2A25"/><circle cx="51.7" cy="47.3" r="1.7" fill="#1C2A25"/><circle cx="65.7" cy="25.9" r="1.8" fill="#1C2A25"/><circle cx="10.6" cy="37.6" r="1.5" fill="#1C2A25"/><circle cx="13.7" cy="44.0" r="0.7" fill="#1C2A25"/><circle cx="60.1" cy="68.8" r="1.3" fill="#1C2A25"/><circle cx="78.8" cy="28.2" r="1.5" fill="#1C2A25"/><circle cx="53.5" cy="52.2" r="1.2" fill="#1C2A25"/><circle cx="75.6" cy="85.0" r="1.2" fill="#1C2A25"/><circle cx="59.8" cy="5.5" r="1.5" fill="#1C2A25"/><circle cx="58.2" cy="89.4" r="1.6" fill="#1C2A25"/><circle cx="25.6" cy="34.7" r="1.4" fill="#1C2A25"/><circle cx="2.0" cy="41.6" r="0.9" fill="#1C2A25"/><circle cx="10.5" cy="5.3" r="1.5" fill="#1C2A25"/><circle cx="11.6" cy="22.3" r="1.1" fill="#1C2A25"/><circle cx="78.4" cy="7.3" r="1.2" fill="#1C2A25"/><circle cx="49.4" cy="79.5" r="1.6" fill="#1C2A25"/><circle cx="77.8" cy="25.1" r="1.2" fill="#1C2A25"/><circle cx="32.3" cy="79.6" r="1.8" fill="#1C2A25"/><circle cx="13.6" cy="15.9" r="1.0" fill="#1C2A25"/><circle cx="21.0" cy="43.6" r="1.3" fill="#1C2A25"/><circle cx="23.6" cy="0.4" r="1.2" fill="#1C2A25"/><circle cx="33.2" cy="51.0" r="1.7" fill="#1C2A25"/><circle cx="62.1" cy="46.4" r="1.4" fill="#1C2A25"/><circle cx="60.9" cy="4.9" r="1.7" fill="#1C2A25"/><circle cx="70.2" cy="78.7" r="1.6" fill="#1C2A25"/><circle cx="35.3" cy="35.9" r="0.8" fill="#1C2A25"/><circle cx="57.1" cy="5.6" r="0.8" fill="#1C2A25"/><circle cx="18.8" cy="14.6" r="1.1" fill="#1C2A25"/><circle cx="4.7" cy="0.0" r="0.9" fill="#1C2A25"/><circle cx="9.1" cy="32.7" r="0.7" fill="#1C2A25"/><circle cx="78.7" cy="55.3" r="0.9" fill="#1C2A25"/><circle cx="22.7" cy="31.3" r="1.1" fill="#1C2A25"/><circle cx="11.1" cy="76.4" r="1.8" fill="#1C2A25"/><circle cx="41.9" cy="43.5" r="0.8" fill="#1C2A25"/><circle cx="9.2" cy="30.8" r="1.0" fill="#1C2A25"/><circle cx="74.6" cy="14.5" r="0.7" fill="#1C2A25"/><circle cx="85.6" cy="47.5" r="0.9" fill="#1C2A25"/><circle cx="48.9" cy="2.4" r="1.3" fill="#1C2A25"/><circle cx="88.1" cy="77.7" r="1.5" fill="#1C2A25"/><circle cx="23.5" cy="33.0" r="0.9" fill="#1C2A25"/><circle cx="69.5" cy="47.9" r="1.6" fill="#1C2A25"/><circle cx="29.7" cy="20.1" r="1.6" fill="#1C2A25"/><circle cx="88.6" cy="76.7" r="1.6" fill="#1C2A25"/><circle cx="73.6" cy="66.6" r="0.9" fill="#1C2A25"/><circle cx="46.6" cy="32.0" r="0.7" fill="#1C2A25"/><circle cx="2.5" cy="25.1" r="1.0" fill="#1C2A25"/><circle cx="62.3" cy="86.1" r="1.2" fill="#1C2A25"/><circle cx="84.3" cy="88.9" r="1.8" fill="#1C2A25"/><circle cx="32.8" cy="19.8" r="0.9" fill="#1C2A25"/><circle cx="17.7" cy="18.4" r="1.4" fill="#1C2A25"/><circle cx="81.0" cy="75.6" r="1.2" fill="#1C2A25"/><circle cx="58.8" cy="72.0" r="0.8" fill="#1C2A25"/><circle cx="59.5" cy="81.9" r="1.6" fill="#1C2A25"/><circle cx="67.5" cy="43.0" r="0.9" fill="#1C2A25"/><circle cx="71.0" cy="29.9" r="1.6" fill="#1C2A25"/><circle cx="87.4" cy="35.6" r="1.1" fill="#1C2A25"/><circle cx="85.2" cy="65.2" r="0.9" fill="#1C2A25"/><circle cx="11.4" cy="13.6" r="1.7" fill="#1C2A25"/><circle cx="72.6" cy="13.2" r="1.6" fill="#1C2A25"/><circle cx="88.2" cy="59.2" r="1.1" fill="#1C2A25"/><circle cx="49.4" cy="11.8" r="0.7" fill="#1C2A25"/><circle cx="87.4" cy="58.5" r="1.3" fill="#1C2A25"/><circle cx="84.0" cy="39.0" r="1.7" fill="#1C2A25"/><circle cx="74.4" cy="19.0" r="1.0" fill="#1C2A25"/><circle cx="26.4" cy="21.6" r="1.3" fill="#1C2A25"/><circle cx="23.3" cy="37.7" r="0.8" fill="#1C2A25"/><circle cx="81.9" cy="31.8" r="1.2" fill="#1C2A25"/><circle cx="52.5" cy="81.4" r="1.2" fill="#1C2A25"/><circle cx="82.6" cy="45.1" r="1.3" fill="#1C2A25"/><circle cx="47.1" cy="1.7" r="1.2" fill="#1C2A25"/><circle cx="16.5" cy="0.4" r="1.6" fill="#1C2A25"/><circle cx="15.5" cy="42.6" r="1.5" fill="#1C2A25"/><circle cx="50.1" cy="29.3" r="1.3" fill="#1C2A25"/><circle cx="50.0" cy="70.6" r="0.8" fill="#1C2A25"/><circle cx="50.4" cy="22.4" r="1.0" fill="#1C2A25"/><circle cx="69.5" cy="45.7" r="1.3" fill="#1C2A25"/><circle cx="68.4" cy="82.1" r="1.2" fill="#1C2A25"/><circle cx="55.1" cy="45.5" r="1.3" fill="#1C2A25"/><circle cx="62.3" cy="40.7" r="1.3" fill="#1C2A25"/><circle cx="43.0" cy="84.7" r="1.5" fill="#1C2A25"/><circle cx="78.9" cy="84.8" r="1.0" fill="#1C2A25"/><circle cx="50.4" cy="84.9" r="1.6" fill="#1C2A25"/><circle cx="12.3" cy="10.9" r="1.2" fill="#1C2A25"/><circle cx="6.5" cy="21.7" r="0.8" fill="#1C2A25"/><circle cx="60.3" cy="70.6" r="1.7" fill="#1C2A25"/><circle cx="13.9" cy="64.5" r="1.4" fill="#1C2A25"/><circle cx="12.9" cy="79.5" r="1.8" fill="#1C2A25"/><circle cx="19.8" cy="85.7" r="1.1" fill="#1C2A25"/><circle cx="43.9" cy="89.1" r="1.6" fill="#1C2A25"/><circle cx="14.5" cy="38.8" r="1.3" fill="#1C2A25"/><circle cx="30.5" cy="17.6" r="1.1" fill="#1C2A25"/><circle cx="65.0" cy="1.8" r="1.3" fill="#1C2A25"/><circle cx="39.6" cy="1.6" r="1.1" fill="#1C2A25"/><circle cx="56.2" cy="46.1" r="0.8" fill="#1C2A25"/><circle cx="88.7" cy="71.0" r="1.8" fill="#1C2A25"/><circle cx="9.4" cy="23.9" r="0.7" fill="#1C2A25"/><circle cx="70.1" cy="24.3" r="0.8" fill="#1C2A25"/><circle cx="38.0" cy="82.0" r="1.6" fill="#1C2A25"/><circle cx="23.3" cy="13.4" r="1.7" fill="#1C2A25"/><circle cx="51.4" cy="63.0" r="0.8" fill="#1C2A25"/><circle cx="5.2" cy="61.9" r="1.2" fill="#1C2A25"/><circle cx="6.5" cy="84.5" r="1.4" fill="#1C2A25"/><circle cx="72.1" cy="7.5" r="1.6" fill="#1C2A25"/><circle cx="6.0" cy="77.6" r="1.2" fill="#1C2A25"/><circle cx="30.5" cy="49.8" r="1.7" fill="#1C2A25"/><circle cx="24.1" cy="11.6" r="1.3" fill="#1C2A25"/><circle cx="21.5" cy="9.9" r="0.9" fill="#1C2A25"/><circle cx="4.5" cy="18.2" r="1.0" fill="#1C2A25"/><circle cx="27.5" cy="68.4" r="1.0" fill="#1C2A25"/><circle cx="45.0" cy="16.0" r="1.1" fill="#1C2A25"/><circle cx="1.6" cy="22.5" r="0.7" fill="#1C2A25"/><circle cx="66.0" cy="49.6" r="0.9" fill="#1C2A25"/><circle cx="42.7" cy="84.1" r="0.8" fill="#1C2A25"/><circle cx="73.7" cy="38.9" r="1.2" fill="#1C2A25"/><circle cx="75.1" cy="35.4" r="1.3" fill="#1C2A25"/><circle cx="61.9" cy="88.4" r="1.1" fill="#1C2A25"/><circle cx="74.9" cy="63.6" r="1.4" fill="#1C2A25"/><circle cx="36.4" cy="31.3" r="0.8" fill="#1C2A25"/><circle cx="11.7" cy="6.4" r="1.5" fill="#1C2A25"/><circle cx="23.0" cy="14.7" r="0.8" fill="#1C2A25"/><circle cx="75.7" cy="78.3" r="1.4" fill="#1C2A25"/><circle cx="25.4" cy="21.8" r="1.0" fill="#1C2A25"/><circle cx="41.4" cy="14.2" r="1.2" fill="#1C2A25"/><circle cx="23.7" cy="86.6" r="1.8" fill="#1C2A25"/><circle cx="49.2" cy="22.0" r="1.8" fill="#1C2A25"/><circle cx="27.9" cy="32.1" r="0.7" fill="#1C2A25"/><circle cx="34.3" cy="42.7" r="1.3" fill="#1C2A25"/><circle cx="18.1" cy="45.4" r="0.7" fill="#1C2A25"/><circle cx="23.8" cy="8.1" r="1.1" fill="#1C2A25"/><circle cx="3.8" cy="2.0" r="1.0" fill="#1C2A25"/><circle cx="21.0" cy="52.7" r="1.3" fill="#1C2A25"/><circle cx="67.5" cy="59.2" r="1.5" fill="#1C2A25"/><circle cx="79.1" cy="35.1" r="1.1" fill="#1C2A25"/><circle cx="88.6" cy="13.5" r="1.5" fill="#1C2A25"/><circle cx="57.9" cy="3.9" r="1.6" fill="#1C2A25"/></pattern>
</defs>
<rect width="1600" height="1067" fill="url(#sky_highlands_october)"/>
<ellipse cx="420" cy="250" rx="300" ry="84" fill="#F7F2E7" opacity="0.75"/>
<ellipse cx="480" cy="290" rx="210" ry="60" fill="#D8D6CC" opacity="0.55"/>
<ellipse cx="900" cy="200" rx="360" ry="100" fill="#F7F2E7" opacity="0.75"/>
<ellipse cx="960" cy="240" rx="251" ry="72" fill="#D8D6CC" opacity="0.55"/>
<ellipse cx="1300" cy="280" rx="260" ry="72" fill="#F7F2E7" opacity="0.75"/>
<ellipse cx="1360" cy="320" rx="182" ry="52" fill="#D8D6CC" opacity="0.55"/>
<rect x="0" y="430.0" width="1600" height="40.0" fill="#DDDAD0" opacity="0.500"/>
<path d="M -40.0,489.2 C 24.6,489.2 24.6,504.1 89.2,504.1 C 153.8,504.1 153.8,502.2 218.5,502.2 C 283.1,502.2 283.1,479.5 347.7,479.5 C 412.3,479.5 412.3,467.7 476.9,467.7 C 541.5,467.7 541.5,461.9 606.2,461.9 C 670.8,461.9 670.8,472.4 735.4,472.4 C 800.0,472.4 800.0,490.4 864.6,490.4 C 929.2,490.4 929.2,507.7 993.8,507.7 C 1058.5,507.7 1058.5,495.0 1123.1,495.0 C 1187.7,495.0 1187.7,486.6 1252.3,486.6 C 1316.9,486.6 1316.9,467.1 1381.5,467.1 C 1446.2,467.1 1446.2,465.1 1510.8,465.1 C 1575.4,465.1 1575.4,459.5 1640.0,459.5 L 1640,1077 L -40,1077 Z" fill="#C2C0B5" opacity="1.000"/>
<path d="M -40.0,604.4 C 24.6,604.4 24.6,605.1 89.2,605.1 C 153.8,605.1 153.8,606.5 218.5,606.5 C 283.1,606.5 283.1,607.7 347.7,607.7 C 412.3,607.7 412.3,570.6 476.9,570.6 C 541.5,570.6 541.5,555.9 606.2,555.9 C 670.8,555.9 670.8,565.7 735.4,565.7 C 800.0,565.7 800.0,597.0 864.6,597.0 C 929.2,597.0 929.2,611.2 993.8,611.2 C 1058.5,611.2 1058.5,609.0 1123.1,609.0 C 1187.7,609.0 1187.7,597.7 1252.3,597.7 C 1316.9,597.7 1316.9,576.3 1381.5,576.3 C 1446.2,576.3 1446.2,556.5 1510.8,556.5 C 1575.4,556.5 1575.4,565.7 1640.0,565.7 L 1640,1077 L -40,1077 Z" fill="#9B9E96" opacity="1.000"/>
<path d="M -40.0,695.2 C 24.6,695.2 24.6,721.4 89.2,721.4 C 153.8,721.4 153.8,722.4 218.5,722.4 C 283.1,722.4 283.1,709.4 347.7,709.4 C 412.3,709.4 412.3,680.7 476.9,680.7 C 541.5,680.7 541.5,669.5 606.2,669.5 C 670.8,669.5 670.8,691.4 735.4,691.4 C 800.0,691.4 800.0,710.3 864.6,710.3 C 929.2,710.3 929.2,731.8 993.8,731.8 C 1058.5,731.8 1058.5,721.1 1123.1,721.1 C 1187.7,721.1 1187.7,708.7 1252.3,708.7 C 1316.9,708.7 1316.9,679.4 1381.5,679.4 C 1446.2,679.4 1446.2,667.4 1510.8,667.4 C 1575.4,667.4 1575.4,678.0 1640.0,678.0 L 1640,1077 L -40,1077 Z" fill="#747A73" opacity="1.000"/>
<path d="M -40.0,842.3 C 24.6,842.3 24.6,862.4 89.2,862.4 C 153.8,862.4 153.8,857.6 218.5,857.6 C 283.1,857.6 283.1,844.5 347.7,844.5 C 412.3,844.5 412.3,830.0 476.9,830.0 C 541.5,830.0 541.5,810.1 606.2,810.1 C 670.8,810.1 670.8,830.6 735.4,830.6 C 800.0,830.6 800.0,839.2 864.6,839.2 C 929.2,839.2 929.2,870.8 993.8,870.8 C 1058.5,870.8 1058.5,869.6 1123.1,869.6 C 1187.7,869.6 1187.7,842.7 1252.3,842.7 C 1316.9,842.7 1316.9,819.7 1381.5,819.7 C 1446.2,819.7 1446.2,818.7 1510.8,818.7 C 1575.4,818.7 1575.4,821.4 1640.0,821.4 L 1640,1077 L -40,1077 Z" fill="#444D47" opacity="1.000"/>
<rect x="0" y="700" width="1600" height="367" fill="url(#h58714)" opacity="0.10"/>
<path d="M 1600,736 C 1360,762 1180,820 1040,896 C 900,972 800,1010 610,1067 L 400,1067 C 640,986 810,930 940,850 C 1120,770 1330,738 1600,712 Z" fill="#C88E70"/>
<path d="M 1600,724 C 1330,750 1120,782 940,862 C 810,942 640,996 400,1067 l 90,0 C 720,984 860,930 980,856 C 1160,780 1360,752 1600,730 Z" fill="#1C2A25" opacity="0.18"/>
<rect x="0" y="970.0" width="1600" height="97.0" fill="#1F2723" opacity="1.000"/>
<path d="M 70.5,1015.6 q -2.6,-30.7 -8.3,-51.1" stroke="#59625B" stroke-width="1.5" fill="none" opacity="0.52" stroke-linecap="round"/>
<path d="M 1078.9,1023.5 q 3.9,-28.3 -4.8,-47.2" stroke="#59625B" stroke-width="1.6" fill="none" opacity="0.71" stroke-linecap="round"/>
<path d="M 1317.9,1016.4 q -0.7,-20.2 2.2,-33.6" stroke="#59625B" stroke-width="2.1" fill="none" opacity="0.53" stroke-linecap="round"/>
<path d="M 1023.1,1021.7 q -2.1,-28.4 -8.8,-47.4" stroke="#59625B" stroke-width="2.3" fill="none" opacity="0.42" stroke-linecap="round"/>
<path d="M 505.1,1017.7 q 3.1,-11.8 -4.9,-19.7" stroke="#59625B" stroke-width="2.9" fill="none" opacity="0.43" stroke-linecap="round"/>
<path d="M 908.9,1025.0 q 6.0,-11.1 1.4,-18.5" stroke="#59625B" stroke-width="2.3" fill="none" opacity="0.58" stroke-linecap="round"/>
<path d="M 805.3,1022.6 q 3.5,-22.2 -9.4,-37.1" stroke="#59625B" stroke-width="2.6" fill="none" opacity="0.70" stroke-linecap="round"/>
<path d="M 794.0,1029.7 q -4.1,-32.1 -6.8,-53.4" stroke="#59625B" stroke-width="1.6" fill="none" opacity="0.51" stroke-linecap="round"/>
<path d="M 865.0,1027.1 q -5.5,-28.4 6.1,-47.4" stroke="#59625B" stroke-width="1.9" fill="none" opacity="0.63" stroke-linecap="round"/>
<path d="M 826.2,1018.6 q 0.0,-16.0 -8.8,-26.7" stroke="#59625B" stroke-width="1.6" fill="none" opacity="0.39" stroke-linecap="round"/>
<path d="M 1241.0,1019.2 q -5.5,-26.9 6.0,-44.9" stroke="#59625B" stroke-width="1.7" fill="none" opacity="0.41" stroke-linecap="round"/>
<path d="M 1178.4,1021.4 q 4.3,-21.3 -5.7,-35.5" stroke="#59625B" stroke-width="2.2" fill="none" opacity="0.47" stroke-linecap="round"/>
<path d="M 1526.9,1014.1 q -1.6,-16.1 -8.0,-26.8" stroke="#59625B" stroke-width="2.1" fill="none" opacity="0.44" stroke-linecap="round"/>
<path d="M 340.8,1014.3 q -2.4,-24.6 -1.7,-40.9" stroke="#59625B" stroke-width="1.5" fill="none" opacity="0.52" stroke-linecap="round"/>
<path d="M 1320.3,1028.9 q -5.3,-27.4 9.7,-45.6" stroke="#59625B" stroke-width="1.7" fill="none" opacity="0.44" stroke-linecap="round"/>
<path d="M 1054.2,1023.9 q 1.1,-24.3 7.6,-40.5" stroke="#59625B" stroke-width="1.7" fill="none" opacity="0.42" stroke-linecap="round"/>
<path d="M 1213.5,1015.8 q -2.8,-20.8 5.6,-34.6" stroke="#59625B" stroke-width="2.0" fill="none" opacity="0.56" stroke-linecap="round"/>
<path d="M 1142.8,1023.6 q -2.6,-14.7 4.3,-24.5" stroke="#59625B" stroke-width="1.7" fill="none" opacity="0.70" stroke-linecap="round"/>
<path d="M 108.8,1028.0 q 0.6,-15.9 -1.9,-26.5" stroke="#59625B" stroke-width="2.4" fill="none" opacity="0.65" stroke-linecap="round"/>
<path d="M 750.1,1015.2 q -3.4,-14.2 -6.5,-23.7" stroke="#59625B" stroke-width="2.7" fill="none" opacity="0.50" stroke-linecap="round"/>
<path d="M 1338.2,1016.4 q -5.4,-26.1 -3.6,-43.5" stroke="#59625B" stroke-width="2.7" fill="none" opacity="0.69" stroke-linecap="round"/>
<path d="M 1312.1,1018.6 q 3.2,-29.9 4.5,-49.8" stroke="#59625B" stroke-width="2.4" fill="none" opacity="0.51" stroke-linecap="round"/>
<path d="M 809.2,1023.7 q 1.4,-26.7 -5.0,-44.5" stroke="#59625B" stroke-width="2.5" fill="none" opacity="0.65" stroke-linecap="round"/>
<path d="M 976.0,1026.6 q 1.7,-30.9 1.9,-51.5" stroke="#59625B" stroke-width="2.2" fill="none" opacity="0.77" stroke-linecap="round"/>
<path d="M 53.7,1018.5 q 0.7,-11.6 -5.3,-19.3" stroke="#59625B" stroke-width="1.7" fill="none" opacity="0.72" stroke-linecap="round"/>
<path d="M 1383.6,1023.2 q 2.3,-25.3 6.5,-42.1" stroke="#59625B" stroke-width="2.1" fill="none" opacity="0.56" stroke-linecap="round"/>
<path d="M 121.2,1030.0 q -2.2,-13.8 9.5,-23.0" stroke="#59625B" stroke-width="1.9" fill="none" opacity="0.63" stroke-linecap="round"/>
<path d="M 1341.7,1018.0 q 2.2,-27.5 4.9,-45.9" stroke="#59625B" stroke-width="2.5" fill="none" opacity="0.44" stroke-linecap="round"/>
<path d="M 6.9,1019.2 q 4.1,-24.4 -2.3,-40.7" stroke="#59625B" stroke-width="1.9" fill="none" opacity="0.46" stroke-linecap="round"/>
<path d="M 1222.7,1025.9 q -1.2,-31.9 -0.5,-53.1" stroke="#59625B" stroke-width="2.9" fill="none" opacity="0.74" stroke-linecap="round"/>
<path d="M 391.5,1018.9 q 2.3,-23.0 6.9,-38.3" stroke="#59625B" stroke-width="2.4" fill="none" opacity="0.69" stroke-linecap="round"/>
<path d="M 377.3,1015.1 q 3.9,-27.0 4.3,-45.0" stroke="#59625B" stroke-width="2.1" fill="none" opacity="0.63" stroke-linecap="round"/>
<path d="M 871.6,1029.9 q -3.4,-25.8 -1.2,-43.0" stroke="#59625B" stroke-width="1.6" fill="none" opacity="0.52" stroke-linecap="round"/>
<path d="M 347.8,1023.1 q 1.4,-15.7 -7.6,-26.2" stroke="#59625B" stroke-width="1.9" fill="none" opacity="0.48" stroke-linecap="round"/>
<path d="M 332.6,1028.0 q 3.1,-30.2 -5.6,-50.3" stroke="#59625B" stroke-width="1.6" fill="none" opacity="0.74" stroke-linecap="round"/>
<path d="M 92.7,1027.3 q 4.2,-23.7 -0.4,-39.5" stroke="#59625B" stroke-width="2.3" fill="none" opacity="0.39" stroke-linecap="round"/>
<path d="M 339.5,1019.2 q 3.8,-16.3 3.3,-27.1" stroke="#59625B" stroke-width="2.1" fill="none" opacity="0.53" stroke-linecap="round"/>
<path d="M 1300.7,1023.2 q 2.7,-28.2 1.9,-47.1" stroke="#59625B" stroke-width="2.4" fill="none" opacity="0.53" stroke-linecap="round"/>
<path d="M 1234.9,1024.8 q -1.7,-19.5 8.8,-32.5" stroke="#59625B" stroke-width="2.2" fill="none" opacity="0.38" stroke-linecap="round"/>
<path d="M 432.5,1022.5 q -1.4,-15.8 -3.5,-26.3" stroke="#59625B" stroke-width="2.3" fill="none" opacity="0.39" stroke-linecap="round"/>
<path d="M 1139.0,1025.5 q -4.5,-27.0 -2.0,-45.0" stroke="#59625B" stroke-width="1.7" fill="none" opacity="0.71" stroke-linecap="round"/>
<path d="M 443.3,1015.3 q 4.5,-16.3 0.8,-27.2" stroke="#59625B" stroke-width="2.1" fill="none" opacity="0.37" stroke-linecap="round"/>
<path d="M 327.2,1027.5 q -3.1,-15.5 -8.4,-25.8" stroke="#59625B" stroke-width="2.4" fill="none" opacity="0.68" stroke-linecap="round"/>
<path d="M 408.1,1018.1 q 2.4,-25.1 6.9,-41.8" stroke="#59625B" stroke-width="2.5" fill="none" opacity="0.76" stroke-linecap="round"/>
<path d="M 694.8,1018.5 q -0.2,-13.3 -3.9,-22.2" stroke="#59625B" stroke-width="2.2" fill="none" opacity="0.45" stroke-linecap="round"/>
<path d="M 1002.7,1026.1 q -0.5,-32.1 -0.1,-53.5" stroke="#59625B" stroke-width="2.7" fill="none" opacity="0.78" stroke-linecap="round"/>
<path d="M 670.4,1026.6 q -0.1,-32.3 -5.5,-53.8" stroke="#59625B" stroke-width="2.2" fill="none" opacity="0.42" stroke-linecap="round"/>
<path d="M 861.5,1026.7 q -2.5,-27.6 -8.3,-46.0" stroke="#59625B" stroke-width="2.8" fill="none" opacity="0.76" stroke-linecap="round"/>
<path d="M 147.6,1020.1 q 0.8,-19.1 6.6,-31.8" stroke="#59625B" stroke-width="2.9" fill="none" opacity="0.75" stroke-linecap="round"/>
<path d="M 838.3,1020.2 q -3.0,-17.3 -3.4,-28.8" stroke="#59625B" stroke-width="2.7" fill="none" opacity="0.35" stroke-linecap="round"/>
<path d="M 925.0,1029.7 q -3.0,-30.2 1.2,-50.3" stroke="#59625B" stroke-width="1.9" fill="none" opacity="0.76" stroke-linecap="round"/>
<path d="M 1131.5,1027.4 q -1.5,-22.9 2.1,-38.2" stroke="#59625B" stroke-width="1.7" fill="none" opacity="0.53" stroke-linecap="round"/>
<path d="M 1261.4,1025.1 q -0.4,-12.6 0.6,-21.0" stroke="#59625B" stroke-width="2.9" fill="none" opacity="0.73" stroke-linecap="round"/>
<path d="M 634.7,1023.6 q -5.8,-14.7 -1.1,-24.6" stroke="#59625B" stroke-width="1.7" fill="none" opacity="0.48" stroke-linecap="round"/>
<path d="M 1442.6,1022.2 q -5.5,-11.5 -1.0,-19.1" stroke="#59625B" stroke-width="1.9" fill="none" opacity="0.44" stroke-linecap="round"/>
<path d="M 1371.7,1028.7 q -2.2,-21.5 9.5,-35.8" stroke="#59625B" stroke-width="1.8" fill="none" opacity="0.50" stroke-linecap="round"/>
<path d="M 80.4,1023.2 q 3.1,-27.1 -9.5,-45.2" stroke="#59625B" stroke-width="2.1" fill="none" opacity="0.62" stroke-linecap="round"/>
<path d="M 527.5,1015.1 q 3.1,-30.1 -7.0,-50.2" stroke="#59625B" stroke-width="2.1" fill="none" opacity="0.77" stroke-linecap="round"/>
<path d="M 792.4,1021.7 q 3.0,-13.5 2.0,-22.6" stroke="#59625B" stroke-width="2.4" fill="none" opacity="0.57" stroke-linecap="round"/>
<path d="M 1420.2,1021.3 q 2.9,-14.6 -8.0,-24.3" stroke="#59625B" stroke-width="1.7" fill="none" opacity="0.50" stroke-linecap="round"/>
<path d="M 1164.2,1028.1 q 4.7,-22.2 -8.0,-37.0" stroke="#59625B" stroke-width="2.3" fill="none" opacity="0.36" stroke-linecap="round"/>
<path d="M 1089.3,1029.3 q -1.4,-30.0 -4.9,-50.0" stroke="#59625B" stroke-width="1.7" fill="none" opacity="0.52" stroke-linecap="round"/>
<path d="M 1039.2,1028.2 q -5.8,-16.1 -6.5,-26.9" stroke="#59625B" stroke-width="2.9" fill="none" opacity="0.74" stroke-linecap="round"/>
<path d="M 403.4,1018.7 q -5.4,-16.9 -8.4,-28.1" stroke="#59625B" stroke-width="2.6" fill="none" opacity="0.47" stroke-linecap="round"/>
<path d="M 146.2,1029.5 q 4.7,-22.6 -5.3,-37.7" stroke="#59625B" stroke-width="1.6" fill="none" opacity="0.73" stroke-linecap="round"/>
<path d="M 1260.6,1014.6 q 1.3,-20.7 7.1,-34.5" stroke="#59625B" stroke-width="2.5" fill="none" opacity="0.72" stroke-linecap="round"/>
<path d="M 150.1,1015.0 q -1.6,-13.8 -4.0,-23.0" stroke="#59625B" stroke-width="1.6" fill="none" opacity="0.78" stroke-linecap="round"/>
<path d="M 1212.8,1028.5 q 0.1,-19.2 -4.1,-32.0" stroke="#59625B" stroke-width="2.6" fill="none" opacity="0.57" stroke-linecap="round"/>
<path d="M 32.4,1016.9 q -5.7,-22.4 -7.8,-37.3" stroke="#59625B" stroke-width="3.0" fill="none" opacity="0.72" stroke-linecap="round"/>
<path d="M 233.0,1014.9 q -4.3,-29.2 8.2,-48.7" stroke="#59625B" stroke-width="1.7" fill="none" opacity="0.72" stroke-linecap="round"/>
<path d="M 615.5,1021.5 q -0.5,-25.6 -0.6,-42.7" stroke="#59625B" stroke-width="2.9" fill="none" opacity="0.78" stroke-linecap="round"/>
<path d="M 1352.2,1021.4 q 5.2,-19.5 7.1,-32.6" stroke="#59625B" stroke-width="2.0" fill="none" opacity="0.48" stroke-linecap="round"/>
<path d="M 339.3,1019.7 q 5.9,-22.6 -9.6,-37.7" stroke="#59625B" stroke-width="2.0" fill="none" opacity="0.44" stroke-linecap="round"/>
<path d="M 219.0,1029.5 q -3.3,-21.1 3.7,-35.2" stroke="#59625B" stroke-width="2.3" fill="none" opacity="0.75" stroke-linecap="round"/>
<path d="M 472.8,1023.8 q 4.3,-18.5 -2.1,-30.9" stroke="#59625B" stroke-width="2.3" fill="none" opacity="0.41" stroke-linecap="round"/>
<path d="M 794.9,1026.6 q 1.6,-16.7 0.6,-27.8" stroke="#59625B" stroke-width="2.5" fill="none" opacity="0.58" stroke-linecap="round"/>
<path d="M 547.0,1025.3 q 5.6,-11.2 -9.4,-18.7" stroke="#59625B" stroke-width="2.2" fill="none" opacity="0.77" stroke-linecap="round"/>
<path d="M 1208.9,1016.1 q 1.3,-19.6 -7.7,-32.7" stroke="#59625B" stroke-width="2.3" fill="none" opacity="0.76" stroke-linecap="round"/>
<path d="M 1236.3,1028.5 q -2.8,-21.5 -5.5,-35.8" stroke="#59625B" stroke-width="1.8" fill="none" opacity="0.43" stroke-linecap="round"/>
<path d="M 420.4,1019.2 q 0.4,-19.8 0.8,-33.0" stroke="#59625B" stroke-width="2.4" fill="none" opacity="0.55" stroke-linecap="round"/>
<path d="M 665.3,1018.5 q 3.4,-15.9 -3.1,-26.5" stroke="#59625B" stroke-width="1.9" fill="none" opacity="0.51" stroke-linecap="round"/>
<path d="M 1452.5,1027.3 q -0.4,-14.2 -5.5,-23.6" stroke="#59625B" stroke-width="2.6" fill="none" opacity="0.65" stroke-linecap="round"/>
<path d="M 946.7,1021.1 q -1.3,-14.7 -5.7,-24.5" stroke="#59625B" stroke-width="1.9" fill="none" opacity="0.47" stroke-linecap="round"/>
<path d="M 602.7,1015.6 q -5.0,-21.0 -0.7,-34.9" stroke="#59625B" stroke-width="1.7" fill="none" opacity="0.53" stroke-linecap="round"/>
<path d="M 797.3,1023.8 q 3.9,-28.2 -4.5,-47.0" stroke="#59625B" stroke-width="1.5" fill="none" opacity="0.36" stroke-linecap="round"/>
<path d="M 1064.1,1016.6 q 6.0,-28.5 -4.5,-47.4" stroke="#59625B" stroke-width="2.3" fill="none" opacity="0.62" stroke-linecap="round"/>
<path d="M 790.3,1022.2 q -3.7,-24.1 9.2,-40.2" stroke="#59625B" stroke-width="2.0" fill="none" opacity="0.59" stroke-linecap="round"/>
<path d="M 763.4,1028.1 q -4.7,-15.5 -6.6,-25.9" stroke="#59625B" stroke-width="1.7" fill="none" opacity="0.69" stroke-linecap="round"/>
<path d="M 1172.5,1017.6 q -2.4,-17.1 -1.9,-28.5" stroke="#59625B" stroke-width="2.3" fill="none" opacity="0.55" stroke-linecap="round"/>
<path d="M 1513.4,1026.0 q -4.0,-17.4 -1.9,-29.1" stroke="#59625B" stroke-width="2.6" fill="none" opacity="0.40" stroke-linecap="round"/>
<path d="M 809.1,1025.5 q 1.0,-31.8 5.2,-53.0" stroke="#59625B" stroke-width="2.1" fill="none" opacity="0.38" stroke-linecap="round"/>
<path d="M 594.6,1014.7 q -5.9,-32.3 9.2,-53.9" stroke="#59625B" stroke-width="2.5" fill="none" opacity="0.50" stroke-linecap="round"/>
<path d="M 625.6,1022.4 q -1.7,-19.2 -8.2,-32.0" stroke="#59625B" stroke-width="2.6" fill="none" opacity="0.66" stroke-linecap="round"/>
<path d="M 749.9,1021.8 q 0.7,-17.3 6.7,-28.9" stroke="#59625B" stroke-width="2.8" fill="none" opacity="0.72" stroke-linecap="round"/>
<path d="M 378.0,1018.4 q 4.5,-32.4 -0.7,-53.9" stroke="#59625B" stroke-width="1.7" fill="none" opacity="0.64" stroke-linecap="round"/>
<path d="M 1338.5,1024.2 q 4.0,-29.5 -8.9,-49.2" stroke="#59625B" stroke-width="1.9" fill="none" opacity="0.37" stroke-linecap="round"/>
<path d="M 503.9,1022.2 q 4.5,-10.9 2.2,-18.2" stroke="#59625B" stroke-width="1.5" fill="none" opacity="0.44" stroke-linecap="round"/>
<path d="M 895.3,1027.8 q -4.5,-24.1 -0.8,-40.2" stroke="#59625B" stroke-width="2.3" fill="none" opacity="0.61" stroke-linecap="round"/>
<path d="M 699.4,1029.4 q 4.8,-30.4 2.9,-50.6" stroke="#59625B" stroke-width="2.0" fill="none" opacity="0.54" stroke-linecap="round"/>
<path d="M 1317.2,1014.3 q 4.0,-13.7 6.9,-22.9" stroke="#59625B" stroke-width="1.9" fill="none" opacity="0.38" stroke-linecap="round"/>
<path d="M 1030.5,1022.4 q -0.9,-19.9 1.0,-33.2" stroke="#59625B" stroke-width="2.2" fill="none" opacity="0.74" stroke-linecap="round"/>
<path d="M 44.1,1020.1 q 4.7,-18.6 -9.4,-30.9" stroke="#59625B" stroke-width="2.4" fill="none" opacity="0.45" stroke-linecap="round"/>
<path d="M 786.7,1014.3 q -2.5,-31.5 2.0,-52.5" stroke="#59625B" stroke-width="1.9" fill="none" opacity="0.48" stroke-linecap="round"/>
<path d="M 511.0,1021.3 q -4.0,-28.2 -0.2,-47.0" stroke="#59625B" stroke-width="2.9" fill="none" opacity="0.66" stroke-linecap="round"/>
<path d="M 1313.3,1014.1 q 0.0,-26.8 -4.8,-44.7" stroke="#59625B" stroke-width="2.5" fill="none" opacity="0.42" stroke-linecap="round"/>
<path d="M 954.9,1027.0 q -4.5,-30.2 5.2,-50.4" stroke="#59625B" stroke-width="2.4" fill="none" opacity="0.61" stroke-linecap="round"/>
<path d="M 480.1,1027.0 q 4.4,-31.8 -7.1,-53.1" stroke="#59625B" stroke-width="2.9" fill="none" opacity="0.62" stroke-linecap="round"/>
<path d="M 121.7,1017.0 q 3.3,-24.9 -0.6,-41.5" stroke="#59625B" stroke-width="2.1" fill="none" opacity="0.73" stroke-linecap="round"/>
<path d="M 805.2,1021.6 q -2.1,-16.0 -4.3,-26.6" stroke="#59625B" stroke-width="1.9" fill="none" opacity="0.52" stroke-linecap="round"/>
<path d="M 1520.2,1026.8 q -3.6,-17.0 -7.8,-28.3" stroke="#59625B" stroke-width="2.6" fill="none" opacity="0.78" stroke-linecap="round"/>
<rect x="223.0" y="910.0" width="14.0" height="90.0" fill="#141C19"/>
<ellipse cx="207.6" cy="896.6" rx="82.3" ry="44.9" fill="#141C19"/>
<ellipse cx="248.0" cy="886.9" rx="67.7" ry="53.8" fill="#141C19"/>
<ellipse cx="272.3" cy="892.9" rx="72.7" ry="50.3" fill="#141C19"/>
<ellipse cx="284.9" cy="844.1" rx="75.0" ry="51.8" fill="#141C19"/>
<ellipse cx="176.1" cy="887.3" rx="61.3" ry="54.0" fill="#141C19"/>
<rect x="1392.3" y="931.0" width="15.4" height="99.0" fill="#141C19"/>
<ellipse cx="1405.4" cy="910.4" rx="71.4" ry="41.4" fill="#141C19"/>
<ellipse cx="1428.0" cy="905.3" rx="63.2" ry="46.4" fill="#141C19"/>
<ellipse cx="1412.5" cy="862.5" rx="65.0" ry="41.5" fill="#141C19"/>
<ellipse cx="1409.3" cy="883.6" rx="51.7" ry="40.5" fill="#141C19"/>
<ellipse cx="1398.1" cy="919.5" rx="48.8" ry="53.3" fill="#141C19"/>
<path d="M 871.5,355.8 q 7.5,-8.3 15.1,0 q 7.5,8.3 15.1,0" fill="none" stroke="#ADAEA5" stroke-width="1.6" opacity="0.47" stroke-linecap="round"/>
<path d="M 625.7,344.0 q 5.3,-5.8 10.6,0 q 5.3,5.8 10.6,0" fill="none" stroke="#ADAEA5" stroke-width="1.6" opacity="0.62" stroke-linecap="round"/>
<path d="M 708.5,389.1 q 6.3,-7.0 12.6,0 q 6.3,7.0 12.6,0" fill="none" stroke="#ADAEA5" stroke-width="1.6" opacity="0.59" stroke-linecap="round"/>
<path d="M 666.6,245.8 q 7.5,-8.3 15.0,0 q 7.5,8.3 15.0,0" fill="none" stroke="#ADAEA5" stroke-width="1.6" opacity="0.63" stroke-linecap="round"/>
<rect width="1600" height="1067" fill="url(#vig_highlands_october)"/>
<rect width="1600" height="1067" fill="url(#grain_highlands_october)" opacity="0.26"/>
<rect width="1600" height="1067" fill="none" stroke="#1F211C" stroke-width="0" />
</svg>
